# xmcd
#
# Track frame offsets:
#	150
#	16313
#	27590
#	45306
#	66904
#	79368
#	95118
#	109328
#	124780
#	139467
#	153398
#	165207
#
# Disc length: 2432 seconds
#
# Revision: 1
# Processed by: cddbd v1.5.2PL0 Copyright (c) Steve Scherf et al.
# Submitted via: audiograbber 1.83.01
#
DISCID=a1097e0c
DTITLE=Doug Prescott Band - Wasteland
DYEAR=2015
DGENRE=
TTITLE0=Wasteland
TTITLE1=Boardwalk Of Broken Dreams
TTITLE2=I Need More Trouble Like That
TTITLE3=Trail Of Tears
TTITLE4=Cat Got You Tongue
TTITLE5=Savannah Wind
TTITLE6=Real Gone Jack
TTITLE7=Wild One
TTITLE8=Keeping The Demons At Bay
TTITLE9=If I Can´t Have Your Love
TTITLE10=Riding
TTITLE11=Wasteland (Indian Version)
EXTD=
EXTT0=
EXTT1=
EXTT2=
EXTT3=
EXTT4=
EXTT5=
EXTT6=
EXTT7=
EXTT8=
EXTT9=
EXTT10=
EXTT11=
PLAYORDER=
